<?xml version="1.0" encoding="utf-8"?>
<!-- Generator: Adobe Illustrator 16.0.0, SVG Export Plug-In . SVG Version: 6.00 Build 0)  -->
<!DOCTYPE svg PUBLIC "-//W3C//DTD SVG 1.1//EN" "http://www.w3.org/Graphics/SVG/1.1/DTD/svg11.dtd">
<svg version="1.1" id="Layer_1" xmlns="http://www.w3.org/2000/svg" xmlns:xlink="http://www.w3.org/1999/xlink" x="0px" y="0px"
	 width="449.898px" height="235.638px" viewBox="0 0 449.898 235.638" enable-background="new 0 0 449.898 235.638"
	 xml:space="preserve">
<polygon fill="#FFFFFF" points="0,235.638 28.295,214.809 28.295,95.979 0,114.618 "/>
<polygon fill="#FFFFFF" points="28.295,62.291 0,80.932 0,105.502 28.295,86.862 "/>
<polygon fill="#FFFFFF" points="42.291,208.925 70.586,189.228 70.586,77.263 42.291,55.317 "/>
<polygon fill="#FFFFFF" points="83.988,189.923 112.285,209.572 112.285,108.628 83.988,84.677 "/>
<polygon fill="#FFFFFF" points="31.683,0 31.683,32.051 133.936,109.689 133.936,77.64 "/>
<polygon fill="#FFFFFF" points="171.878,105.763 171.591,105.763 154.666,114.298 151.679,101.068 174.295,89.975 188.803,89.975 
	188.803,182.429 171.878,182.429 "/>
<polygon fill="#FFFFFF" points="231.048,105.763 230.762,105.763 213.836,114.298 210.849,101.068 233.466,89.975 247.974,89.975 
	247.974,182.429 231.048,182.429 "/>
<polygon fill="#FFFFFF" points="290.217,105.763 289.93,105.763 273.005,114.298 270.018,101.068 292.635,89.975 307.143,89.975 
	307.143,182.429 290.217,182.429 "/>
<path fill="#FFFFFF" d="M350.546,98.552c0,5.061-3.794,9.277-9.838,9.277c-5.762,0-9.558-4.216-9.558-9.277
	c0-5.341,3.935-9.417,9.696-9.417C346.752,89.135,350.407,93.211,350.546,98.552"/>
<rect x="332.275" y="116.543" fill="#FFFFFF" width="17.5" height="65.4"/>
<polygon fill="#FFFFFF" points="399.203,105.222 368.5,105.222 368.5,88.749 449.898,88.749 449.898,105.222 418.873,105.222 
	418.873,181.943 399.203,181.943 "/>
</svg>
